# xmcd
#
# Track frame offsets:
#	150
#	14003
#	25646
#	41059
#	50044
#	64969
#	79249
#	93089
#	106422
#	118020
#	127205
#
# Disc length: 1840 seconds
#
# Revision: 0
# Processed by: cddbd v1.5.2PL0 Copyright (c) Steve Scherf et al.
# Submitted via: EasyCDDAExtractor 10.2.0.1
#
DISCID=98072e0b
DTITLE=David Nations - Piano Solos
DYEAR=2003
DGENRE=Gospel
TTITLE0=Melody Of Fast Favorites
TTITLE1=He Touched Me
TTITLE2=Had It Not Been
TTITLE3=Keep On The Firing Line
TTITLE4=A Closer Walk With Thee
TTITLE5=What A Day That Will Be
TTITLE6=Are You Washed In The Blood
TTITLE7=Medley Of Slow Favorites
TTITLE8=When The Roll Is Called Up Yonder
TTITLE9=Just A Little Talk With Jesus
TTITLE10=Amazing Grace
EXTD=
EXTT0=
EXTT1=
EXTT2=
EXTT3=
EXTT4=
EXTT5=
EXTT6=
EXTT7=
EXTT8=
EXTT9=
EXTT10=
PLAYORDER=
